<svg xmlns="http://www.w3.org/2000/svg" viewBox="0 0 600 600">
<g transform="translate(0,600) scale(0.1,-0.1)" fill="#5C6E4A" stroke="none">
<path d="M3162 5175 c-214 -73 -335 -232 -349 -460 -7 -119 7 -240 72 -590
108 -585 177 -1046 205 -1385 14 -164 14 -509 0 -635 -39 -352 -163 -637 -334
-766 -200 -151 -354 9 -386 402 -11 133 -3 296 21 423 21 117 85 265 153 361
54 75 48 135 -17 158 -37 14 -66 -6 -128 -86 -76 -99 -247 -272 -347 -351
-229 -181 -440 -279 -602 -281 -304 -2 -257 275 116 686 311 342 649 541 943
554 93 4 116 16 127 70 8 43 -24 81 -73 88 -127 16 -345 -41 -532 -139 -362
-188 -769 -612 -910 -947 -22 -53 -26 -77 -26 -162 0 -116 16 -156 85 -219 75
-68 117 -81 265 -81 108 0 142 4 205 23 144 45 334 154 497 285 40 32 75 58
77 56 2 -2 0 -31 -5 -64 -18 -126 -21 -282 -10 -404 28 -289 111 -468 252
-546 50 -28 62 -30 154 -30 89 0 106 3 155 27 193 95 359 348 436 662 113 466
76 1028 -151 2271 -95 524 -101 580 -70 700 40 154 176 255 343 255 94 0 156
-23 213 -80 71 -71 93 -138 93 -280 0 -106 -3 -123 -37 -225 -43 -124 -162
-376 -255 -537 -43 -74 -62 -117 -62 -141 0 -37 23 -65 56 -68 52 -5 63 2 117
79 165 235 504 444 806 498 219 38 371 -41 395 -206 26 -178 -191 -486 -463
-658 -118 -75 -126 -85 -122 -144 2 -30 38 -58 74 -58 69 0 324 188 445 328
167 194 239 359 230 527 -7 135 -81 256 -196 318 -208 113 -555 54 -898 -152
l-51 -31 45 111 c142 356 94 659 -128 801 -113 72 -290 90 -428 43z"/>
</g>
</svg>
