<svg xmlns="http://www.w3.org/2000/svg" viewBox="0 0 600 250">
<g transform="translate(0,250) scale(0.1,-0.1)" fill="#5C6E4A" stroke="none">
<path d="M2689 1751 c-60 -63 -98 -204 -121 -441 l-12 -132 -74 -69 c-132
-123 -251 -161 -313 -100 -25 25 -29 37 -29 85 0 30 5 67 10 82 14 35 -6 60
-24 30 -96 -159 -237 -251 -310 -203 -31 20 -50 78 -43 128 5 38 4 40 -38 59
-24 11 -53 20 -65 20 -57 0 -125 -55 -154 -124 -22 -52 -128 -126 -180 -126
-34 0 -52 31 -61 103 -14 122 -86 128 -175 16 -36 -46 -40 -48 -40 -26 0 32
-18 79 -33 89 -32 20 -63 7 -119 -53 l-58 -60 0 51 c0 44 -4 56 -29 81 -57 57
-161 31 -254 -63 -57 -58 -119 -146 -114 -162 8 -24 27 -13 52 30 67 114 201
210 263 188 44 -16 57 -56 43 -138 -17 -107 -17 -110 -1 -113 9 -2 27 18 47
54 44 83 110 155 137 151 20 -3 21 -9 21 -93 0 -62 4 -90 12 -90 6 0 34 34 61
76 91 139 152 159 152 51 0 -49 29 -104 62 -120 37 -17 90 -3 157 43 37 26 51
31 51 20 0 -28 38 -55 77 -55 33 0 45 8 95 60 55 58 58 60 64 36 3 -13 19 -37
35 -52 61 -59 169 -31 274 69 l43 42 6 -37 c13 -83 94 -130 187 -108 62 15
151 69 212 128 l48 47 -3 -124 c-2 -79 1 -125 7 -128 6 -2 28 36 50 84 49 110
124 193 173 193 36 0 47 -15 63 -89 6 -31 22 -62 39 -81 38 -41 105 -42 181
-2 l53 27 31 -34 c26 -28 40 -34 82 -38 61 -6 107 8 173 52 31 21 50 29 50 21
0 -7 10 -26 22 -41 19 -24 26 -27 62 -22 34 5 50 15 98 67 l56 61 7 -29 c3
-16 20 -42 36 -58 27 -26 37 -29 92 -28 73 0 118 20 204 93 l59 49 18 -51 c42
-119 154 -155 279 -91 38 20 113 89 147 136 l27 38 7 -52 c23 -175 155 -198
310 -54 21 20 39 36 40 36 1 0 0 -27 -2 -60 -6 -81 16 -81 59 0 57 108 124
170 183 170 30 0 52 -29 61 -81 31 -171 193 -195 346 -52 27 25 49 54 49 64 0
28 -12 23 -55 -22 -91 -94 -207 -128 -260 -75 -13 13 -33 55 -44 93 -23 76
-42 100 -88 109 -53 11 -133 -45 -195 -136 l-17 -25 6 40 c4 22 21 60 38 85
130 184 216 408 184 476 -30 63 -105 29 -153 -69 -34 -68 -71 -218 -87 -344
l-12 -101 -61 -63 c-72 -73 -155 -117 -194 -103 -63 23 -86 114 -62 253 l12
71 46 0 c98 0 182 12 182 26 0 11 -23 14 -105 14 -69 0 -105 4 -105 11 0 6 9
47 21 91 11 44 18 83 15 85 -17 18 -36 -16 -57 -100 l-22 -94 -81 -7 c-80 -7
-113 -19 -89 -34 6 -4 43 -5 82 -2 64 5 71 3 71 -13 0 -34 -60 -136 -115 -195
-120 -130 -254 -149 -313 -43 -43 76 -40 96 32 205 98 147 152 304 127 368
-27 72 -93 51 -147 -47 -40 -71 -71 -196 -80 -320 l-7 -89 -56 -54 c-104 -99
-216 -132 -269 -78 -22 22 -27 37 -30 97 l-4 71 -45 20 c-31 14 -55 18 -79 13
-42 -7 -99 -56 -124 -105 -57 -112 -228 -183 -294 -121 -14 14 -26 28 -26 32
0 4 23 29 50 56 28 26 54 62 59 79 27 95 -87 114 -134 23 -9 -17 -18 -54 -20
-82 -3 -49 -5 -53 -48 -80 -25 -16 -63 -31 -85 -34 -53 -7 -87 25 -97 90 -13
87 -58 128 -121 113 -36 -9 -111 -82 -146 -141 l-30 -50 7 85 c5 65 11 92 28
115 162 223 233 375 225 487 -4 51 -9 65 -32 85 -40 34 -73 30 -117 -16z m109
-45 c17 -52 3 -118 -44 -216 -36 -76 -139 -240 -150 -240 -8 0 3 120 22 228
30 172 81 276 132 270 21 -2 30 -11 40 -42z m2350 -120 c-3 -28 -17 -82 -33
-121 -29 -74 -120 -240 -135 -250 -22 -13 39 264 75 339 27 57 69 101 87 90 6
-4 8 -29 6 -58z m-869 -7 c4 -34 -16 -120 -45 -185 -25 -57 -102 -184 -111
-184 -10 0 5 132 22 195 40 151 121 257 134 174z m-1051 -397 c2 -15 -11 -37
-42 -69 -45 -48 -46 -48 -46 -20 0 78 78 157 88 89z m435 -15 c16 -11 16 -15
-8 -62 -27 -55 -87 -119 -122 -129 -17 -5 -26 -1 -38 18 -38 57 43 186 117
186 19 0 42 -6 51 -13z m-1943 -12 c26 -31 -90 -185 -140 -185 -21 0 -40 27
-40 60 0 31 36 95 66 119 31 25 96 28 114 6z"/>
<path d="M2182 1418 c-15 -15 3 -48 27 -48 21 0 33 22 25 45 -7 18 -35 20 -52
3z"/>
</g>
</svg>
