<svg version="1.1" id="svg2" xml:space="preserve" viewBox="42.59978997175141 545.54472 715.2280526836158 134.70239999999998" xmlns="http://www.w3.org/2000/svg" style="max-height: 500px" width="715.2280526836158" height="134.70239999999998"><metadata id="metadata8">image/svg+xml</metadata><defs id="defs6"><clipPath clipPathUnits="userSpaceOnUse" id="clipPath22"><path d="M 0,841.89 H 595.276 V 0 H 0 Z" id="path20"/></clipPath></defs><g id="g10" transform="matrix(1.3333333,0,0,-1.3333333,0,1122.52)"><g id="g12" transform="translate(60.1523,452.8004)"/><g id="g16"><g id="g18" clip-path="url(#clipPath22)"><g id="g24" transform="translate(149.9121,452.8004)"/><g id="g28" transform="translate(227.8477,452.8004)"/><g id="g34" transform="translate(312.7437,478.4015)"/><g id="g38" transform="translate(408.5034,463.0876)"/><g id="g42" transform="translate(499.2358,452.8004)"/><g id="g46" transform="translate(526.3774,452.8004)"/><g id="g50" transform="translate(47.3638,415.5949)"><path d="m 0,0 h 29.256 c 3.392,0 6.04,-0.938 7.937,-2.812 1.901,-1.875 2.853,-4.406 2.853,-7.598 0,-0.978 -0.124,-1.88 -0.309,-2.736 h 9.541 c 0.115,0.983 0.19,1.99 0.19,3.041 0,3.038 -0.455,5.772 -1.368,8.207 -0.916,2.424 -2.229,4.492 -3.954,6.19 C 42.427,5.986 40.31,7.31 37.804,8.241 35.296,9.18 32.446,9.648 29.256,9.648 H -9.572 V -13.146 H 0 Z" style="fill:#f14624;fill-opacity:1;fill-rule:nonzero;stroke:none" id="path52"/></g><g id="g54" transform="translate(47.3638,415.5949)"><path d="m 0,0 h 29.256 c 3.392,0 6.04,-0.938 7.937,-2.812 1.901,-1.875 2.853,-4.406 2.853,-7.598 0,-0.978 -0.124,-1.88 -0.309,-2.736 h 9.541 c 0.115,0.983 0.19,1.99 0.19,3.041 0,3.038 -0.455,5.772 -1.368,8.207 -0.916,2.424 -2.229,4.492 -3.954,6.19 C 42.427,5.986 40.31,7.31 37.804,8.241 35.296,9.18 32.446,9.648 29.256,9.648 H -9.572 V -13.146 H 0 Z" style="fill:none;stroke:#ffffff;stroke-width:5.32700014;stroke-linecap:butt;stroke-linejoin:round;stroke-miterlimit:4;stroke-dasharray:none;stroke-opacity:1" id="path56"/></g><path d="m 37.792,370.003 h 9.572 v 14.814 h -9.572 z" style="fill:#f14624;fill-opacity:1;fill-rule:nonzero;stroke:#ffffff;stroke-width:5.32700014;stroke-linecap:butt;stroke-linejoin:round;stroke-miterlimit:4;stroke-dasharray:none;stroke-opacity:1" id="path58"/><g id="g60" transform="translate(117.1191,404.9533)"><path d="m 0,0 c 0.864,2.178 2.052,4.053 3.574,5.624 1.519,1.568 3.329,2.799 5.429,3.689 2.104,0.881 4.393,1.329 6.88,1.329 h 13.451 c 2.531,0 4.862,-0.448 6.992,-1.329 2.123,-0.89 3.962,-2.121 5.505,-3.689 1.544,-1.571 2.749,-3.459 3.61,-5.66 0.312,-0.793 0.546,-1.623 0.744,-2.469 h 9.9 c -0.304,2.373 -0.847,4.623 -1.68,6.725 -1.316,3.319 -3.163,6.165 -5.546,8.548 -2.382,2.379 -5.229,4.229 -8.547,5.545 -3.32,1.316 -6.975,1.977 -10.978,1.977 H 15.883 C 12.031,20.29 8.472,19.642 5.21,18.352 1.94,17.06 -0.9,15.238 -3.306,12.879 -5.715,10.525 -7.588,7.674 -8.93,4.334 -9.781,2.203 -10.333,-0.083 -10.644,-2.505 h 9.89 C -0.554,-1.641 -0.32,-0.804 0,0" style="fill:#f14624;fill-opacity:1;fill-rule:nonzero;stroke:none" id="path62"/></g><g id="g64" transform="translate(117.1191,404.9533)"><path d="m 0,0 c 0.864,2.178 2.052,4.053 3.574,5.624 1.519,1.568 3.329,2.799 5.429,3.689 2.104,0.881 4.393,1.329 6.88,1.329 h 13.451 c 2.531,0 4.862,-0.448 6.992,-1.329 2.123,-0.89 3.962,-2.121 5.505,-3.689 1.544,-1.571 2.749,-3.459 3.61,-5.66 0.312,-0.793 0.546,-1.623 0.744,-2.469 h 9.9 c -0.304,2.373 -0.847,4.623 -1.68,6.725 -1.316,3.319 -3.163,6.165 -5.546,8.548 -2.382,2.379 -5.229,4.229 -8.547,5.545 -3.32,1.316 -6.975,1.977 -10.978,1.977 H 15.883 C 12.031,20.29 8.472,19.642 5.21,18.352 1.94,17.06 -0.9,15.238 -3.306,12.879 -5.715,10.525 -7.588,7.674 -8.93,4.334 -9.781,2.203 -10.333,-0.083 -10.644,-2.505 h 9.89 C -0.554,-1.641 -0.32,-0.804 0,0 Z" style="fill:none;stroke:#ffffff;stroke-width:5.32700014;stroke-linecap:butt;stroke-linejoin:round;stroke-miterlimit:4;stroke-dasharray:none;stroke-opacity:1" id="path66"/></g><g id="g68" transform="translate(158.9497,384.7814)"><path d="m 0,0 c -1.542,-1.595 -3.382,-2.852 -5.504,-3.762 -2.131,-0.911 -4.461,-1.363 -6.993,-1.363 h -13.45 c -2.487,0 -4.776,0.452 -6.881,1.363 -2.099,0.91 -3.909,2.167 -5.429,3.762 -0.01,0.013 -0.023,0.028 -0.033,0.036 h -11.49 c 1.225,-2.52 2.765,-4.768 4.643,-6.727 2.407,-2.502 5.247,-4.477 8.517,-5.923 3.262,-1.444 6.82,-2.164 10.673,-2.164 h 13.45 c 3.952,0 7.57,0.72 10.869,2.164 3.288,1.446 6.133,3.421 8.542,5.923 1.876,1.959 3.419,4.207 4.646,6.727 H 0.034 C 0.023,0.028 0.011,0.013 0,0" style="fill:#f14624;fill-opacity:1;fill-rule:nonzero;stroke:none" id="path70"/></g><g id="g72" transform="translate(158.9497,384.7814)"><path d="m 0,0 c -1.542,-1.595 -3.382,-2.852 -5.504,-3.762 -2.131,-0.911 -4.461,-1.363 -6.993,-1.363 h -13.45 c -2.487,0 -4.776,0.452 -6.881,1.363 -2.099,0.91 -3.909,2.167 -5.429,3.762 -0.01,0.013 -0.023,0.028 -0.033,0.036 h -11.49 c 1.225,-2.52 2.765,-4.768 4.643,-6.727 2.407,-2.502 5.247,-4.477 8.517,-5.923 3.262,-1.444 6.82,-2.164 10.673,-2.164 h 13.45 c 3.952,0 7.57,0.72 10.869,2.164 3.288,1.446 6.133,3.421 8.542,5.923 1.876,1.959 3.419,4.207 4.646,6.727 H 0.034 C 0.023,0.028 0.011,0.013 0,0 Z" style="fill:none;stroke:#ffffff;stroke-width:5.32700014;stroke-linecap:butt;stroke-linejoin:round;stroke-miterlimit:4;stroke-dasharray:none;stroke-opacity:1" id="path74"/></g><g id="g76" transform="translate(194.3789,403.8927)"><path d="m 0,0 c -1.244,1.165 -1.868,2.812 -1.868,4.937 0,2.127 0.614,3.787 1.831,4.978 1.21,1.189 2.934,1.787 5.162,1.787 h 39.668 v 9.649 H 5.125 c -2.737,0 -5.162,-0.393 -7.292,-1.176 -2.125,-0.785 -3.915,-1.865 -5.361,-3.234 -1.441,-1.365 -2.531,-3.002 -3.267,-4.898 -0.734,-1.901 -1.103,-3.967 -1.103,-6.19 0,-2.285 0.398,-4.383 1.181,-6.306 0.148,-0.359 0.353,-0.655 0.525,-0.991 H 2.739 C 1.672,-1.163 0.744,-0.703 0,0" style="fill:#f14624;fill-opacity:1;fill-rule:nonzero;stroke:none" id="path78"/></g><g id="g80" transform="translate(194.3789,403.8927)"><path d="m 0,0 c -1.244,1.165 -1.868,2.812 -1.868,4.937 0,2.127 0.614,3.787 1.831,4.978 1.21,1.189 2.934,1.787 5.162,1.787 h 39.668 v 9.649 H 5.125 c -2.737,0 -5.162,-0.393 -7.292,-1.176 -2.125,-0.785 -3.915,-1.865 -5.361,-3.234 -1.441,-1.365 -2.531,-3.002 -3.267,-4.898 -0.734,-1.901 -1.103,-3.967 -1.103,-6.19 0,-2.285 0.398,-4.383 1.181,-6.306 0.148,-0.359 0.353,-0.655 0.525,-0.991 H 2.739 C 1.672,-1.163 0.744,-0.703 0,0 Z" style="fill:none;stroke:#ffffff;stroke-width:5.32700014;stroke-linecap:butt;stroke-linejoin:round;stroke-miterlimit:4;stroke-dasharray:none;stroke-opacity:1" id="path82"/></g><g id="g84" transform="translate(230.7026,381.6261)"><path d="m 0,0 c -1.399,-1.316 -3.384,-1.97 -5.967,-1.97 h -41.412 v -9.653 h 41.412 c 2.89,0 5.405,0.406 7.559,1.213 2.154,0.813 3.938,1.94 5.358,3.381 1.418,1.446 2.477,3.155 3.19,5.133 0.569,1.573 0.837,3.292 0.959,5.087 H 1.81 C 1.503,1.948 0.918,0.868 0,0" style="fill:#f14624;fill-opacity:1;fill-rule:nonzero;stroke:none" id="path86"/></g><g id="g88" transform="translate(230.7026,381.6261)"><path d="m 0,0 c -1.399,-1.316 -3.384,-1.97 -5.967,-1.97 h -41.412 v -9.653 h 41.412 c 2.89,0 5.405,0.406 7.559,1.213 2.154,0.813 3.938,1.94 5.358,3.381 1.418,1.446 2.477,3.155 3.19,5.133 0.569,1.573 0.837,3.292 0.959,5.087 H 1.81 C 1.503,1.948 0.918,0.868 0,0 Z" style="fill:none;stroke:#ffffff;stroke-width:5.32700014;stroke-linecap:butt;stroke-linejoin:round;stroke-miterlimit:4;stroke-dasharray:none;stroke-opacity:1" id="path90"/></g><g id="g92" transform="translate(341.0269,425.2433)"><path d="m 0,0 h -9.648 v -55.24 h 0.335 c 2.779,0.767 5.895,1.571 9.313,2.359 z" style="fill:#f14624;fill-opacity:1;fill-rule:nonzero;stroke:none" id="path94"/></g><g id="g96" transform="translate(341.0269,425.2433)"><path d="m 0,0 h -9.648 v -55.24 h 0.335 c 2.779,0.767 5.895,1.571 9.313,2.359 z" style="fill:none;stroke:#ffffff;stroke-width:5.32700014;stroke-linecap:butt;stroke-linejoin:round;stroke-miterlimit:4;stroke-dasharray:none;stroke-opacity:1" id="path98"/></g><g id="g100" transform="translate(367.2729,415.5949)"><path d="m 0,0 h 22.418 c 2.477,0 4.773,-0.447 6.872,-1.329 2.103,-0.89 3.928,-2.12 5.474,-3.689 1.545,-1.571 2.749,-3.459 3.613,-5.66 0.86,-2.206 1.287,-4.596 1.287,-7.179 0,-2.585 -0.427,-4.992 -1.287,-7.221 -0.864,-2.225 -2.068,-4.142 -3.613,-5.735 -1.546,-1.595 -3.371,-2.852 -5.474,-3.762 -2.099,-0.911 -4.395,-1.363 -6.872,-1.363 l -22.418,0 z m 38.837,-40.062 c 1.017,0.789 1.992,1.626 2.877,2.557 2.383,2.511 4.245,5.489 5.587,8.934 1.343,3.441 2.013,7.166 2.013,11.169 0,3.999 -0.67,7.661 -2.013,10.98 -1.342,3.319 -3.204,6.165 -5.587,8.548 -2.383,2.38 -5.218,4.229 -8.506,5.545 -3.293,1.317 -6.889,1.977 -10.79,1.977 H -9.578 v -49.71 c 8.179,1.226 17.106,2.066 26.283,2.066 7.755,0 15.025,-0.819 22.132,-2.066" style="fill:#f14624;fill-opacity:1;fill-rule:nonzero;stroke:none" id="path102"/></g><g id="g104" transform="translate(367.2729,415.5949)"><path d="m 0,0 h 22.418 c 2.477,0 4.773,-0.447 6.872,-1.329 2.103,-0.89 3.928,-2.12 5.474,-3.689 1.545,-1.571 2.749,-3.459 3.613,-5.66 0.86,-2.206 1.287,-4.596 1.287,-7.179 0,-2.585 -0.427,-4.992 -1.287,-7.221 -0.864,-2.225 -2.068,-4.142 -3.613,-5.735 -1.546,-1.595 -3.371,-2.852 -5.474,-3.762 -2.099,-0.911 -4.395,-1.363 -6.872,-1.363 l -22.418,0 z m 38.837,-40.062 c 1.017,0.789 1.992,1.626 2.877,2.557 2.383,2.511 4.245,5.489 5.587,8.934 1.343,3.441 2.013,7.166 2.013,11.169 0,3.999 -0.67,7.661 -2.013,10.98 -1.342,3.319 -3.204,6.165 -5.587,8.548 -2.383,2.38 -5.218,4.229 -8.506,5.545 -3.293,1.317 -6.889,1.977 -10.79,1.977 H -9.578 v -49.71 c 8.179,1.226 17.106,2.066 26.283,2.066 7.755,0 15.025,-0.819 22.132,-2.066 z" style="fill:none;stroke:#ffffff;stroke-width:5.32700014;stroke-linecap:butt;stroke-linejoin:round;stroke-miterlimit:4;stroke-dasharray:none;stroke-opacity:1" id="path106"/></g><g id="g108" transform="translate(434.7759,404.9533)"><path d="m 0,0 c 0.863,2.178 2.055,4.053 3.571,5.624 1.517,1.568 3.33,2.799 5.434,3.689 2.102,0.881 4.391,1.329 6.875,1.329 h 13.451 c 2.531,0 4.862,-0.448 6.992,-1.329 2.123,-0.89 3.962,-2.121 5.505,-3.689 1.545,-1.571 2.746,-3.459 3.61,-5.66 0.859,-2.206 1.291,-4.597 1.291,-7.18 0,-2.585 -0.432,-4.991 -1.291,-7.221 -0.864,-2.224 -2.065,-4.141 -3.61,-5.735 -1.543,-1.595 -3.382,-2.851 -5.505,-3.762 -2.13,-0.911 -4.461,-1.363 -6.992,-1.363 H 15.88 c -2.484,0 -4.773,0.452 -6.875,1.363 -2.104,0.911 -3.917,2.167 -5.434,3.762 -1.516,1.594 -2.708,3.511 -3.571,5.735 -0.856,2.23 -1.296,4.636 -1.296,7.221 0,2.633 0.44,5.042 1.296,7.216 m -3.304,-26.863 c 2.404,-2.502 5.244,-4.477 8.506,-5.923 3.268,-1.443 6.831,-2.164 10.678,-2.164 h 13.451 c 3.951,0 7.569,0.721 10.866,2.164 3.29,1.446 6.139,3.421 8.545,5.923 2.408,2.51 4.284,5.489 5.624,8.933 1.342,3.442 2.019,7.166 2.019,11.169 0,3.999 -0.661,7.661 -1.983,10.981 -1.316,3.319 -3.163,6.165 -5.538,8.548 -2.385,2.379 -5.236,4.229 -8.551,5.545 -3.324,1.316 -6.986,1.977 -10.982,1.977 H 15.88 C 12.033,20.29 8.47,19.642 5.202,18.352 1.94,17.06 -0.9,15.238 -3.304,12.879 -5.71,10.525 -7.583,7.674 -8.926,4.334 c -1.342,-3.343 -2.02,-7.041 -2.02,-11.095 0,-4.003 0.678,-7.727 2.02,-11.169 1.343,-3.444 3.216,-6.423 5.622,-8.933" style="fill:#f14624;fill-opacity:1;fill-rule:nonzero;stroke:none" id="path110"/></g><g id="g112" transform="translate(434.7759,404.9533)"><path d="m 0,0 c 0.863,2.178 2.055,4.053 3.571,5.624 1.517,1.568 3.33,2.799 5.434,3.689 2.102,0.881 4.391,1.329 6.875,1.329 h 13.451 c 2.531,0 4.862,-0.448 6.992,-1.329 2.123,-0.89 3.962,-2.121 5.505,-3.689 1.545,-1.571 2.746,-3.459 3.61,-5.66 0.859,-2.206 1.291,-4.597 1.291,-7.18 0,-2.585 -0.432,-4.991 -1.291,-7.221 -0.864,-2.224 -2.065,-4.141 -3.61,-5.735 -1.543,-1.595 -3.382,-2.851 -5.505,-3.762 -2.13,-0.911 -4.461,-1.363 -6.992,-1.363 H 15.88 c -2.484,0 -4.773,0.452 -6.875,1.363 -2.104,0.911 -3.917,2.167 -5.434,3.762 -1.516,1.594 -2.708,3.511 -3.571,5.735 -0.856,2.23 -1.296,4.636 -1.296,7.221 0,2.633 0.44,5.042 1.296,7.216 z m -3.304,-26.863 c 2.404,-2.502 5.244,-4.477 8.506,-5.923 3.268,-1.443 6.831,-2.164 10.678,-2.164 h 13.451 c 3.951,0 7.569,0.721 10.866,2.164 3.29,1.446 6.139,3.421 8.545,5.923 2.408,2.51 4.284,5.489 5.624,8.933 1.342,3.442 2.019,7.166 2.019,11.169 0,3.999 -0.661,7.661 -1.983,10.981 -1.316,3.319 -3.163,6.165 -5.538,8.548 -2.385,2.379 -5.236,4.229 -8.551,5.545 -3.324,1.316 -6.986,1.977 -10.982,1.977 H 15.88 C 12.033,20.29 8.47,19.642 5.202,18.352 1.94,17.06 -0.9,15.238 -3.304,12.879 -5.71,10.525 -7.583,7.674 -8.926,4.334 c -1.342,-3.343 -2.02,-7.041 -2.02,-11.095 0,-4.003 0.678,-7.727 2.02,-11.169 1.343,-3.444 3.216,-6.423 5.622,-8.933 z" style="fill:none;stroke:#ffffff;stroke-width:5.32700014;stroke-linecap:butt;stroke-linejoin:round;stroke-miterlimit:4;stroke-dasharray:none;stroke-opacity:1" id="path114"/></g><g id="g116" transform="translate(549.8286,425.6984)"><path d="m 0,0 v -40.423 l -38.985,38.678 c -0.71,0.707 -1.392,1.212 -2.052,1.516 -0.661,0.307 -1.337,0.456 -2.05,0.456 -1.524,0 -2.724,-0.518 -3.61,-1.556 -0.885,-1.041 -1.332,-2.448 -1.332,-4.214 v -50.152 h 9.2 v 40.421 L 0,-54.329 c 1.371,-1.366 2.835,-2.05 4.406,-2.05 1.415,0 2.571,0.507 3.463,1.519 0.876,1.009 1.326,2.432 1.326,4.256 V 0 Z" style="fill:#f14624;fill-opacity:1;fill-rule:nonzero;stroke:none" id="path118"/></g><g id="g120" transform="translate(549.8286,425.6984)"><path d="m 0,0 v -40.423 l -38.985,38.678 c -0.71,0.707 -1.392,1.212 -2.052,1.516 -0.661,0.307 -1.337,0.456 -2.05,0.456 -1.524,0 -2.724,-0.518 -3.61,-1.556 -0.885,-1.041 -1.332,-2.448 -1.332,-4.214 v -50.152 h 9.2 v 40.421 L 0,-54.329 c 1.371,-1.366 2.835,-2.05 4.406,-2.05 1.415,0 2.571,0.507 3.463,1.519 0.876,1.009 1.326,2.432 1.326,4.256 V 0 Z" style="fill:none;stroke:#ffffff;stroke-width:5.32700014;stroke-linecap:butt;stroke-linejoin:round;stroke-miterlimit:4;stroke-dasharray:none;stroke-opacity:1" id="path122"/></g><g id="g124" transform="translate(301.1235,379.6564)"><path d="m 0,0 h -2.362 -37.005 v 5.161 7.978 H 9.926 12.299 V 8.99 l 12.72,8.977 -12.72,8.982 V 22.792 H 9.926 -39.367 v 13.146 h 36.927 2.367 v -4.154 l 12.72,8.978 -12.72,8.979 V 45.587 H -2.44 -48.94 V 22.792 h -55.065 -12.932 -10.982 -9.9 -46.94 -9.889 -9.833 -9.542 -39.737 -9.572 v -9.653 h 9.572 3.075 42.502 13.69 9.794 46.83 9.794 56.806 11.068 11.261 V 5.161 -9.653 H -2.362 0 v -4.152 L 12.726,-4.828 0,4.154 Z" style="fill:#008dc6;fill-opacity:1;fill-rule:nonzero;stroke:none" id="path126"/></g><g id="g128" transform="translate(301.1235,379.6564)"><path d="m 0,0 h -2.362 -37.005 v 5.161 7.978 H 9.926 12.299 V 8.99 l 12.72,8.977 -12.72,8.982 V 22.792 H 9.926 -39.367 v 13.146 h 36.927 2.367 v -4.154 l 12.72,8.978 -12.72,8.979 V 45.587 H -2.44 -48.94 V 22.792 h -55.065 -12.932 -10.982 -9.9 -46.94 -9.889 -9.833 -9.542 -39.737 -9.572 v -9.653 h 9.572 3.075 42.502 13.69 9.794 46.83 9.794 56.806 11.068 11.261 V 5.161 -9.653 H -2.362 0 v -4.152 L 12.726,-4.828 0,4.154 Z" style="fill:none;stroke:#ffffff;stroke-width:5.32700014;stroke-linecap:butt;stroke-linejoin:round;stroke-miterlimit:4;stroke-dasharray:none;stroke-opacity:1" id="path130"/></g><g id="g132" transform="translate(319.4126,361.9396)"><path d="m 0,0 c 0,0 30.896,11.669 64.565,11.669 33.666,0 59.02,-15.844 100.612,-15.844 41.592,0 65.749,3.961 65.749,3.961 0,0 -33.265,-15.841 -76.443,-15.841 -43.178,0 -59.813,10.137 -95.858,14.364 C 22.576,2.536 0,0 0,0" style="fill:#008dc6;fill-opacity:1;fill-rule:nonzero;stroke:none" id="path134"/></g><g id="g136" transform="translate(319.4126,361.9396)"><path d="m 0,0 c 0,0 30.896,11.669 64.565,11.669 33.666,0 59.02,-15.844 100.612,-15.844 41.592,0 65.749,3.961 65.749,3.961 0,0 -33.265,-15.841 -76.443,-15.841 -43.178,0 -59.813,10.137 -95.858,14.364 C 22.576,2.536 0,0 0,0 Z" style="fill:none;stroke:#ffffff;stroke-width:5.32700014;stroke-linecap:butt;stroke-linejoin:round;stroke-miterlimit:4;stroke-dasharray:none;stroke-opacity:1" id="path138"/></g><g id="g140" transform="translate(290.4946,351.4298)"><path d="m 0,0 c 0,0 10.301,5.541 38.025,5.541 27.732,0 62.649,-8.584 79.921,-10.937 17.423,-2.381 38.118,-2.527 38.118,-2.527 0,0 -15.635,-8.056 -49.907,-6.734 C 73.701,-13.403 43.571,-3.964 26.146,-1.981 8.717,0 0,0 0,0" style="fill:#008dc6;fill-opacity:1;fill-rule:nonzero;stroke:none" id="path142"/></g><g id="g144" transform="translate(290.4946,351.4298)"><path d="m 0,0 c 0,0 10.301,5.541 38.025,5.541 27.732,0 62.649,-8.584 79.921,-10.937 17.423,-2.381 38.118,-2.527 38.118,-2.527 0,0 -15.635,-8.056 -49.907,-6.734 C 73.701,-13.403 43.571,-3.964 26.146,-1.981 8.717,0 0,0 0,0 Z" style="fill:none;stroke:#ffffff;stroke-width:5.32700014;stroke-linecap:butt;stroke-linejoin:round;stroke-miterlimit:4;stroke-dasharray:none;stroke-opacity:1" id="path146"/></g><g id="g148" transform="translate(47.3638,415.5949)"><path d="m 0,0 h 29.256 c 3.392,0 6.04,-0.938 7.937,-2.812 1.901,-1.875 2.853,-4.406 2.853,-7.598 0,-0.978 -0.124,-1.88 -0.309,-2.736 h 9.541 c 0.115,0.983 0.19,1.99 0.19,3.041 0,3.038 -0.455,5.772 -1.368,8.207 -0.916,2.424 -2.229,4.492 -3.954,6.19 C 42.427,5.986 40.31,7.31 37.804,8.241 35.296,9.18 32.446,9.648 29.256,9.648 H -9.572 V -13.146 H 0 Z" style="fill:#f14624;fill-opacity:1;fill-rule:nonzero;stroke:none" id="path150"/></g><path d="m 37.792,370.003 h 9.572 v 14.814 h -9.572 z" style="fill:#f14624;fill-opacity:1;fill-rule:nonzero;stroke:none" id="path152"/><g id="g154" transform="translate(117.1191,404.9533)"><path d="m 0,0 c 0.864,2.178 2.052,4.053 3.574,5.624 1.519,1.568 3.329,2.799 5.429,3.689 2.104,0.881 4.393,1.329 6.88,1.329 h 13.451 c 2.531,0 4.862,-0.448 6.992,-1.329 2.123,-0.89 3.962,-2.121 5.505,-3.689 1.544,-1.571 2.749,-3.459 3.61,-5.66 0.312,-0.793 0.546,-1.623 0.744,-2.469 h 9.9 c -0.304,2.373 -0.847,4.623 -1.68,6.725 -1.316,3.319 -3.163,6.165 -5.546,8.548 -2.382,2.379 -5.229,4.229 -8.547,5.545 -3.32,1.316 -6.975,1.977 -10.978,1.977 H 15.883 C 12.031,20.29 8.472,19.642 5.21,18.352 1.94,17.06 -0.9,15.238 -3.306,12.879 -5.715,10.525 -7.588,7.674 -8.93,4.334 -9.781,2.203 -10.333,-0.083 -10.644,-2.505 h 9.89 C -0.554,-1.641 -0.32,-0.804 0,0" style="fill:#f14624;fill-opacity:1;fill-rule:nonzero;stroke:none" id="path156"/></g><g id="g158" transform="translate(158.9497,384.7814)"><path d="m 0,0 c -1.542,-1.595 -3.382,-2.852 -5.504,-3.762 -2.131,-0.911 -4.461,-1.363 -6.993,-1.363 h -13.45 c -2.487,0 -4.776,0.452 -6.881,1.363 -2.099,0.91 -3.909,2.167 -5.429,3.762 -0.01,0.013 -0.023,0.028 -0.033,0.036 h -11.49 c 1.225,-2.52 2.765,-4.768 4.643,-6.727 2.407,-2.502 5.247,-4.477 8.517,-5.923 3.262,-1.444 6.82,-2.164 10.673,-2.164 h 13.45 c 3.952,0 7.57,0.72 10.869,2.164 3.288,1.446 6.133,3.421 8.542,5.923 1.876,1.959 3.419,4.207 4.646,6.727 H 0.034 C 0.023,0.028 0.011,0.013 0,0" style="fill:#f14624;fill-opacity:1;fill-rule:nonzero;stroke:none" id="path160"/></g><g id="g162" transform="translate(194.3789,403.8927)"><path d="m 0,0 c -1.244,1.165 -1.868,2.812 -1.868,4.937 0,2.127 0.614,3.787 1.831,4.978 1.21,1.189 2.934,1.787 5.162,1.787 h 39.668 v 9.649 H 5.125 c -2.737,0 -5.162,-0.393 -7.292,-1.176 -2.125,-0.785 -3.915,-1.865 -5.361,-3.234 -1.441,-1.365 -2.531,-3.002 -3.267,-4.898 -0.734,-1.901 -1.103,-3.967 -1.103,-6.19 0,-2.285 0.398,-4.383 1.181,-6.306 0.148,-0.359 0.353,-0.655 0.525,-0.991 H 2.739 C 1.672,-1.163 0.744,-0.703 0,0" style="fill:#f14624;fill-opacity:1;fill-rule:nonzero;stroke:none" id="path164"/></g><g id="g166" transform="translate(230.7026,381.6261)"><path d="m 0,0 c -1.399,-1.316 -3.384,-1.97 -5.967,-1.97 h -41.412 v -9.653 h 41.412 c 2.89,0 5.405,0.406 7.559,1.213 2.154,0.813 3.938,1.94 5.358,3.381 1.418,1.446 2.477,3.155 3.19,5.133 0.569,1.573 0.837,3.292 0.959,5.087 H 1.81 C 1.503,1.948 0.918,0.868 0,0" style="fill:#f14624;fill-opacity:1;fill-rule:nonzero;stroke:none" id="path168"/></g><g id="g170" transform="translate(341.0269,425.2433)"><path d="m 0,0 h -9.648 v -55.24 h 0.335 c 2.779,0.767 5.895,1.571 9.313,2.359 z" style="fill:#f14624;fill-opacity:1;fill-rule:nonzero;stroke:none" id="path172"/></g><g id="g174" transform="translate(367.2729,415.5949)"><path d="m 0,0 h 22.418 c 2.477,0 4.773,-0.447 6.872,-1.329 2.103,-0.89 3.928,-2.12 5.474,-3.689 1.545,-1.571 2.749,-3.459 3.613,-5.66 0.86,-2.206 1.287,-4.596 1.287,-7.179 0,-2.585 -0.427,-4.992 -1.287,-7.221 -0.864,-2.225 -2.068,-4.142 -3.613,-5.735 -1.546,-1.595 -3.371,-2.852 -5.474,-3.762 -2.099,-0.911 -4.395,-1.363 -6.872,-1.363 l -22.418,0 z m 38.837,-40.062 c 1.017,0.789 1.992,1.626 2.877,2.557 2.383,2.511 4.245,5.489 5.587,8.934 1.343,3.441 2.013,7.166 2.013,11.169 0,3.999 -0.67,7.661 -2.013,10.98 -1.342,3.319 -3.204,6.165 -5.587,8.548 -2.383,2.38 -5.218,4.229 -8.506,5.545 -3.293,1.317 -6.889,1.977 -10.79,1.977 H -9.578 v -49.71 c 8.179,1.226 17.106,2.066 26.283,2.066 7.755,0 15.025,-0.819 22.132,-2.066" style="fill:#f14624;fill-opacity:1;fill-rule:nonzero;stroke:none" id="path176"/></g><g id="g178" transform="translate(434.7759,404.9533)"><path d="m 0,0 c 0.863,2.178 2.055,4.053 3.571,5.624 1.517,1.568 3.33,2.799 5.434,3.689 2.102,0.881 4.391,1.329 6.875,1.329 h 13.451 c 2.531,0 4.862,-0.448 6.992,-1.329 2.123,-0.89 3.962,-2.121 5.505,-3.689 1.545,-1.571 2.746,-3.459 3.61,-5.66 0.859,-2.206 1.291,-4.597 1.291,-7.18 0,-2.585 -0.432,-4.991 -1.291,-7.221 -0.864,-2.224 -2.065,-4.141 -3.61,-5.735 -1.543,-1.595 -3.382,-2.851 -5.505,-3.762 -2.13,-0.911 -4.461,-1.363 -6.992,-1.363 H 15.88 c -2.484,0 -4.773,0.452 -6.875,1.363 -2.104,0.911 -3.917,2.167 -5.434,3.762 -1.516,1.594 -2.708,3.511 -3.571,5.735 -0.856,2.23 -1.296,4.636 -1.296,7.221 0,2.633 0.44,5.042 1.296,7.216 m -3.304,-26.863 c 2.404,-2.502 5.244,-4.477 8.506,-5.923 3.268,-1.443 6.831,-2.164 10.678,-2.164 h 13.451 c 3.951,0 7.569,0.721 10.866,2.164 3.29,1.446 6.139,3.421 8.545,5.923 2.408,2.51 4.284,5.489 5.624,8.933 1.342,3.442 2.019,7.166 2.019,11.169 0,3.999 -0.661,7.661 -1.983,10.981 -1.316,3.319 -3.163,6.165 -5.538,8.548 -2.385,2.379 -5.236,4.229 -8.551,5.545 -3.324,1.316 -6.986,1.977 -10.982,1.977 H 15.88 C 12.033,20.29 8.47,19.642 5.202,18.352 1.94,17.06 -0.9,15.238 -3.304,12.879 -5.71,10.525 -7.583,7.674 -8.926,4.334 c -1.342,-3.343 -2.02,-7.041 -2.02,-11.095 0,-4.003 0.678,-7.727 2.02,-11.169 1.343,-3.444 3.216,-6.423 5.622,-8.933" style="fill:#f14624;fill-opacity:1;fill-rule:nonzero;stroke:none" id="path180"/></g><g id="g182" transform="translate(549.8286,425.6984)"><path d="m 0,0 v -40.423 l -38.985,38.678 c -0.71,0.707 -1.392,1.212 -2.052,1.516 -0.661,0.307 -1.337,0.456 -2.05,0.456 -1.524,0 -2.724,-0.518 -3.61,-1.556 -0.885,-1.041 -1.332,-2.448 -1.332,-4.214 v -50.152 h 9.2 v 40.421 L 0,-54.329 c 1.371,-1.366 2.835,-2.05 4.406,-2.05 1.415,0 2.571,0.507 3.463,1.519 0.876,1.009 1.326,2.432 1.326,4.256 V 0 Z" style="fill:#f14624;fill-opacity:1;fill-rule:nonzero;stroke:none" id="path184"/></g><g id="g186" transform="translate(301.1235,379.6564)"><path d="m 0,0 h -2.362 -37.005 v 5.161 7.978 H 9.926 12.299 V 8.99 l 12.72,8.977 -12.72,8.982 V 22.792 H 9.926 -39.367 v 13.146 h 36.927 2.367 v -4.154 l 12.72,8.978 -12.72,8.979 V 45.587 H -2.44 -48.94 V 22.792 h -55.065 -12.932 -10.982 -9.9 -46.94 -9.889 -9.833 -9.542 -39.737 -9.572 v -9.653 h 9.572 3.075 42.502 13.69 9.794 46.83 9.794 56.806 11.068 11.261 V 5.161 -9.653 H -2.362 0 v -4.152 L 12.726,-4.828 0,4.154 Z" style="fill:#231f20;fill-opacity:1;fill-rule:nonzero;stroke:none" id="path188"/></g><g id="g190" transform="translate(319.4126,361.9396)"><path d="m 0,0 c 0,0 30.896,11.669 64.565,11.669 33.666,0 59.02,-15.844 100.612,-15.844 41.592,0 65.749,3.961 65.749,3.961 0,0 -33.265,-15.841 -76.443,-15.841 -43.178,0 -59.813,10.137 -95.858,14.364 C 22.576,2.536 0,0 0,0" style="fill:#231f20;fill-opacity:1;fill-rule:nonzero;stroke:none" id="path192"/></g><g id="g194" transform="translate(290.4946,351.4298)"><path d="m 0,0 c 0,0 10.301,5.541 38.025,5.541 27.732,0 62.649,-8.584 79.921,-10.937 17.423,-2.381 38.118,-2.527 38.118,-2.527 0,0 -15.635,-8.056 -49.907,-6.734 C 73.701,-13.403 43.571,-3.964 26.146,-1.981 8.717,0 0,0 0,0" style="fill:#231f20;fill-opacity:1;fill-rule:nonzero;stroke:none" id="path196"/></g></g></g></g></svg>