<?xml version="1.0" standalone="no"?>
<!DOCTYPE svg PUBLIC "-//W3C//DTD SVG 20010904//EN"
 "http://www.w3.org/TR/2001/REC-SVG-20010904/DTD/svg10.dtd">
<svg version="1.0" xmlns="http://www.w3.org/2000/svg"
 width="300.000000pt" height="300.000000pt" viewBox="0 0 300.000000 300.000000"
 preserveAspectRatio="xMidYMid meet">
<metadata>
Created by potrace 1.10, written by Peter Selinger 2001-2011
</metadata>
<g transform="translate(0.000000,300.000000) scale(0.100000,-0.100000)"
fill="#000000" stroke="none">
<path d="M1702 2519 c-29 -5 -69 -18 -90 -28 -87 -45 -160 -154 -170 -253 -3
-27 -8 -50 -11 -53 -4 -2 -72 2 -152 10 -79 7 -203 16 -274 20 -123 6 -132 5
-157 -14 -33 -26 -74 -108 -89 -178 l-11 -53 -46 0 c-79 -1 -164 -41 -206 -98
-30 -40 -26 -105 9 -142 25 -26 36 -30 80 -30 36 0 66 8 97 24 l46 24 5 -76
c6 -92 29 -172 61 -208 21 -25 31 -28 127 -35 96 -8 415 -35 674 -58 311 -28
536 -43 558 -37 93 23 167 223 167 451 0 194 -40 303 -117 324 -34 10 -399 44
-618 58 -44 3 -85 9 -91 14 -15 12 1 100 26 149 23 45 87 104 137 126 26 12
65 18 128 18 79 0 103 -5 194 -37 134 -47 190 -50 153 -6 -9 10 -23 19 -31 19
-9 0 -60 15 -116 34 -109 37 -201 48 -283 35z m-752 -392 c67 -151 39 -482
-52 -609 -31 -44 -62 -37 -89 20 -20 40 -23 63 -24 152 0 94 2 105 19 108 21
4 36 -13 36 -44 0 -12 7 -27 16 -34 13 -11 19 -10 37 8 17 18 22 37 25 96 4
79 -7 116 -37 116 -19 0 -41 -38 -41 -70 0 -16 -7 -20 -31 -20 l-31 0 7 53
c20 153 71 267 120 267 21 0 30 -8 45 -43z m245 23 c233 -17 969 -80 992 -85
32 -7 73 -98 85 -192 20 -150 -28 -380 -95 -458 l-33 -38 -264 22 c-146 12
-393 33 -550 46 -157 14 -311 25 -342 25 -57 0 -58 0 -46 24 17 38 -81 42 818
-33 335 -28 373 -28 352 5 -6 10 -567 60 -992 90 -41 3 -89 7 -106 10 l-32 4
18 59 c25 79 43 249 35 330 -8 81 -31 180 -48 199 -10 12 -6 14 28 8 22 -3
103 -10 180 -16z m-461 -282 c-7 -56 -15 -67 -77 -99 -54 -28 -96 -28 -119 1
-26 32 -23 49 20 90 42 39 86 57 145 59 l38 1 -7 -52z m160 -3 c3 -8 4 -21 2
-27 -3 -7 -7 -25 -10 -40 -8 -35 -24 -36 -32 -3 -3 14 -10 25 -15 25 -4 0 0
13 9 30 19 33 37 39 46 15z"/>
<path d="M1165 1996 c-2 -6 -6 -26 -9 -43 l-5 -33 43 0 c23 0 45 -2 47 -5 3
-2 -1 -59 -7 -127 -7 -68 -10 -126 -7 -130 2 -5 21 -8 42 -8 38 0 39 1 45 43
3 23 8 81 12 128 l7 86 43 -5 c40 -4 44 -2 49 21 15 57 8 61 -100 69 -55 4
-113 9 -128 11 -16 2 -30 -1 -32 -7z m173 -38 c8 -7 12 -7 12 0 0 6 7 9 15 6
25 -10 17 -31 -14 -37 -35 -7 -49 -39 -55 -122 -6 -89 -17 -127 -32 -112 -6 6
-6 69 0 157 5 56 -11 90 -39 90 -13 0 -27 24 -19 32 8 8 119 -4 132 -14z"/>
<path d="M1486 1938 c-7 -51 -26 -265 -26 -290 0 -15 9 -18 45 -18 43 0 45 1
45 29 0 15 3 56 7 91 7 76 -12 78 -22 2 -9 -65 -12 -72 -30 -66 -12 5 -14 19
-10 68 7 105 16 171 24 179 16 16 42 -7 77 -71 34 -62 58 -91 77 -92 13 0 37
67 37 104 0 22 6 36 16 40 15 6 16 -5 10 -116 -10 -171 -37 -189 -102 -64 -29
57 -50 83 -60 74 -3 -4 15 -47 41 -97 46 -86 50 -90 87 -96 22 -4 41 -5 43 -3
5 5 32 333 28 341 -2 4 -22 7 -43 7 l-39 0 -5 -52 c-3 -29 -7 -71 -9 -93 l-2
-40 -43 81 c-56 105 -60 111 -104 118 l-37 7 -5 -43z"/>
<path d="M1836 1920 c-9 -49 -9 -49 42 -56 l48 -6 -7 -67 c-19 -172 -19 -191
-5 -191 7 0 27 -3 43 -6 l30 -6 7 74 c4 40 9 99 13 131 l6 59 43 -4 c28 -2 44
1 44 8 0 6 3 25 6 41 l6 30 -79 7 c-43 3 -103 9 -134 12 l-56 6 -7 -32z m74
-11 c0 -9 4 -9 13 0 11 9 77 4 115 -8 1 -1 7 -1 12 -1 22 0 8 -19 -19 -25 -16
-3 -33 -14 -37 -23 -8 -20 -23 -110 -26 -166 -2 -23 -9 -41 -17 -44 -12 -4
-13 13 -8 100 5 85 4 109 -9 126 -8 12 -22 22 -30 22 -8 0 -14 7 -14 15 0 8 5
15 10 15 6 0 10 -5 10 -11z"/>
</g>
</svg>
